<svg width="32" height="32" viewBox="0 0 32 32" fill="none" xmlns="http://www.w3.org/2000/svg">
<rect width="32" height="32" rx="16" fill="#283750"/>
<path d="M5.59596 11.004H8.05996L10.818 18.83H10.846L13.534 11.004H15.97V21H14.304V13.286H14.276L11.504 21H10.062L7.28996 13.286H7.26196V21H5.59596V11.004ZM26.7874 21H25.6674L25.4014 19.824C24.9347 20.356 24.468 20.7247 24.0014 20.93C23.5347 21.1353 22.998 21.238 22.3914 21.238C21.6447 21.238 20.9727 21.1027 20.3754 20.832C19.7874 20.552 19.288 20.174 18.8774 19.698C18.4667 19.222 18.1494 18.6667 17.9254 18.032C17.7107 17.3973 17.6034 16.7207 17.6034 16.002C17.6034 15.2927 17.7107 14.6207 17.9254 13.986C18.1494 13.3513 18.4667 12.796 18.8774 12.32C19.288 11.844 19.7874 11.466 20.3754 11.186C20.9727 10.906 21.6447 10.766 22.3914 10.766C22.9327 10.766 23.446 10.8407 23.9314 10.99C24.426 11.13 24.8647 11.3447 25.2474 11.634C25.63 11.914 25.9474 12.2687 26.1994 12.698C26.4514 13.1273 26.61 13.622 26.6754 14.182H24.9674C24.9207 13.8553 24.818 13.5707 24.6594 13.328C24.51 13.076 24.3187 12.866 24.0854 12.698C23.852 12.53 23.5907 12.404 23.3014 12.32C23.012 12.236 22.7087 12.194 22.3914 12.194C21.8594 12.194 21.3974 12.3013 21.0054 12.516C20.6227 12.7307 20.31 13.02 20.0674 13.384C19.8247 13.7387 19.6427 14.1447 19.5214 14.602C19.4094 15.0593 19.3534 15.526 19.3534 16.002C19.3534 16.478 19.4094 16.9447 19.5214 17.402C19.6427 17.8593 19.8247 18.27 20.0674 18.634C20.31 18.9887 20.6227 19.2733 21.0054 19.488C21.3974 19.7027 21.8594 19.81 22.3914 19.81C22.8394 19.8193 23.236 19.7633 23.5814 19.642C23.9267 19.5113 24.216 19.3293 24.4494 19.096C24.692 18.8533 24.874 18.5593 24.9954 18.214C25.1167 17.8687 25.182 17.486 25.1914 17.066H22.5314V15.736H26.7874V21Z" fill="white"/>
</svg>
